<svg xmlns="http://www.w3.org/2000/svg" viewBox="0 0 64 64" role="img" aria-labelledby="equilens-favicon">
  <title id="equilens-favicon">Equilens</title>
  <style>
    .bracket { fill: #4F46E5; }
    .text    { fill: #111827; }
  </style>
  <g transform="translate(4,11)">
    <!-- [ -->
    <path class="bracket" d="M12.32 -3.87H20.98V-0.97H16.08V30.3H20.98V33.2H12.32V-3.87Z"/>
    <!-- e -->
    <path class="text" d="M38.35 19.52v1.21H26.82q.17 2.58 1.56 3.92 1.4 1.35 3.89 1.35 1.45 0 2.8-.35 1.36-.35 2.7-1.06v2.36q-1.36.57-2.77.87-1.42.29-2.88.29-3.65 0-5.78-2.11-2.13-2.11-2.13-5.71 0-3.72 2.02-5.91 2.02-2.18 5.46-2.18 3.08 0 4.87 1.97 1.79 1.96 1.79 5.35Zm-2.51-.74q-.02-2.04-1.13-3.25-1.13-1.22-3-1.22-2.09 0-3.35 1.17-1.26 1.18-1.45 3.32l8.93-.02Z"/>
    <!-- ] -->
    <path class="bracket" d="M49.35 -3.87V33.2H40.69V30.3H45.57V-0.97H40.69V-3.87H49.35Z"/>
  </g>
</svg>
