<svg xmlns="http://www.w3.org/2000/svg" viewBox="0 0 280 48" width="280" height="48" role="img" aria-labelledby="title desc">
  <title id="title">Equilens wordmark (outlined)</title>
  <desc id="desc">Outlined vector approximation of the Equilens logotype.</desc>
  <g fill="#0B0B0C">
    <path d="M8 8h24v6H16v8h14v6H16v8h16v6H8V8z"/>
    <path d="M42 18c6.627 0 12 5.373 12 12v12h-6V42c-3.314 0-6-2.686-6-6v-6c0-6.627 5.373-12 12-12zm0 6c-3.314 0-6 2.686-6 6v6c0 1.657 1.343 3 3 3h3v-9c0-3.314-2.686-6-6-6z"/>
    <path d="M68 18h6v16c0 3.314 2.686 6 6 6s6-2.686 6-6V18h6v16c0 6.627-5.373 12-12 12s-12-5.373-12-12V18z"/>
    <path d="M106 8h6v6h-6V8zm0 10h6v24h-6V18z"/>
    <path d="M122 8h6v34h-6V8z"/>
    <path d="M142 18c6.627 0 12 5.373 12 12v2h-18v2c0 3.314 2.686 6 6 6 2.21 0 4.145-1.194 5.196-2.972l5.196 3c-2.103 3.754-6.128 6.293-10.657 6.293-6.627 0-12-5.373-12-12s5.373-12 12-12zm-6 10h12c0-3.314-2.686-6-6-6s-6 2.686-6 6z"/>
    <path d="M168 18h6v4.243C176.21 19.791 179.373 18 183 18c6.627 0 12 5.373 12 12v12h-6V30c0-3.314-2.686-6-6-6s-6 2.686-6 6v12h-6V18z"/>
    <path d="M209 18c6.627 0 12 5.373 12 12v1h-6v-1c0-3.314-2.686-6-6-6-3.314 0-6 2.686-6 6 0 2.21 1.194 4.145 2.972 5.196l6.056 3.608C215.582 41.207 218 45.232 218 50h-6c0-3.314-2.686-6-6-6s-6 2.686-6 6h-6c0-6.627 5.373-12 12-12 3.314 0 6-2.686 6-6s-2.686-6-6-6z"/>
  </g>
</svg>
