<svg xmlns="http://www.w3.org/2000/svg" viewBox="29.36 -0.65 196.17 38.84" role="img" aria-labelledby="equilens-wordmark-mono">
  <title id="equilens-wordmark-mono">Equilens (mono)</title>
  <style>    .mark { fill: currentColor; }</style>
  <g class="mark" transform="scale(0.717,0.717)">
    <!-- Left Bracket [ -->
    <path d="M 53.38 1.56 L 64.36 1.56 L 64.36 5.24 L 58.14 5.24 L 58.14 44.85 L 64.36 44.85 L 64.36 48.53 L 53.38 48.53 L 53.38 1.56 Z"/>
    <!-- e -->
    <path d="M 106.00 28.45 L 106.00 30.40 L 87.56 30.40 Q 87.82 34.52 90.05 36.67 Q 92.29 38.83 96.28 38.83 Q 98.58 38.83 100.75 38.27 Q 102.92 37.71 105.06 36.58 L 105.06 40.35 Q 102.90 41.25 100.64 41.73 Q 98.37 42.21 96.04 42.21 Q 90.19 42.21 86.78 38.84 Q 83.37 35.45 83.37 29.69 Q 83.37 23.74 86.61 20.24 Q 89.84 16.74 95.34 16.74 Q 100.27 16.74 103.13 19.90 Q 106.00 23.04 106.00 28.45 Z M 101.99 27.28 Q 101.95 24.02 100.15 22.07 Q 98.35 20.12 95.38 20.12 Q 92.03 20.12 90.01 22.00 Q 88.00 23.89 87.69 27.31 L 101.99 27.28 Z"/>
    <!-- q -->
    <path d="M 115.42 29.47 Q 115.42 33.87 117.24 36.37 Q 119.06 38.87 122.24 38.87 Q 125.42 38.87 127.24 36.37 Q 129.08 33.87 129.08 29.47 Q 129.08 25.08 127.24 22.58 Q 125.42 20.08 122.24 20.08 Q 119.06 20.08 117.24 22.58 Q 115.42 25.08 115.42 29.47 Z M 129.08 37.94 Q 127.82 40.10 125.88 41.16 Q 123.96 42.21 121.25 42.21 Q 116.83 42.21 114.05 38.70 Q 111.27 35.19 111.27 29.47 Q 111.27 23.76 114.05 20.25 Q 116.83 16.74 121.25 16.74 Q 123.96 16.74 125.88 17.80 Q 127.82 18.84 129.08 21.00 L 129.08 17.33 L 133.09 17.33 L 133.09 50.80 L 129.08 50.80 L 129.08 37.94 Z"/>
    <!-- u -->
    <path d="M 140.50 32.01 L 140.50 17.33 L 144.52 17.33 L 144.52 31.86 Q 144.52 35.30 145.86 37.03 Q 147.21 38.75 149.92 38.75 Q 153.16 38.75 155.05 36.69 Q 156.94 34.63 156.94 31.07 L 156.94 17.33 L 160.95 17.33 L 160.95 41.58 L 156.94 41.58 L 156.94 37.85 Q 155.48 40.06 153.55 41.14 Q 151.62 42.21 149.07 42.21 Q 144.86 42.21 142.68 39.61 Q 140.50 37.01 140.50 32.01 Z"/>
    <!-- i -->
    <path   d="M 168.82 17.33 L 172.83 17.33 L 172.83 41.58 L 168.82 41.58 L 168.82 17.33 Z"/>
    <path d="M 168.82 7.88  L 172.83 7.88  L 172.83 12.93 L 168.82 12.93 L 168.82 7.88 Z"/>
    <!-- l -->
    <path d="M 185.56 7.88 L 189.57 7.88 L 189.57 41.58 L 185.56 41.58 L 185.56 7.88 Z"/>
    <!-- e -->
    <path d="M 223.18 28.45 L 223.18 30.40 L 204.74 30.40 Q 205.00 34.52 207.23 36.67 Q 209.47 38.83 213.46 38.83 Q 215.76 38.83 217.93 38.27 Q 220.10 37.71 222.24 36.58 L 222.24 40.35 Q 220.08 41.25 217.82 41.73 Q 215.55 42.21 213.22 42.21 Q 207.37 42.21 203.96 38.84 Q 200.55 35.45 200.55 29.69 Q 200.55 23.74 203.79 20.24 Q 207.02 16.74 212.52 16.74 Q 217.45 16.74 220.31 19.90 Q 223.18 23.04 223.18 28.45 Z M 219.17 27.28 Q 219.13 24.02 217.33 22.07 Q 215.53 20.12 212.56 20.12 Q 209.21 20.12 207.19 22.00 Q 205.18 23.89 204.87 27.31 L 219.17 27.28 Z"/>
    <!-- n -->
    <path d="M 250.49 26.94 L 250.49 41.58 L 246.48 41.58 L 246.48 27.07 Q 246.48 23.62 245.13 21.92 Q 243.78 20.21 241.08 20.21 Q 237.83 20.21 235.95 22.27 Q 234.07 24.32 234.07 27.87 L 234.07 41.58 L 230.04 41.58 L 230.04 17.33 L 234.07 17.33 L 234.07 21.09 Q 235.52 18.91 237.46 17.82 Q 239.42 16.74 241.97 16.74 Q 246.18 16.74 248.33 19.33 Q 250.49 21.91 250.49 26.94 Z"/>
    <!-- s -->
    <path d="M 273.66 18.04 L 273.66 21.81 Q 271.96 20.94 270.13 20.51 Q 268.30 20.08 266.33 20.08 Q 263.35 20.08 261.86 20.98 Q 260.36 21.89 260.36 23.71 Q 260.36 25.10 261.43 25.89 Q 262.50 26.68 265.73 27.39 L 267.10 27.70 Q 271.37 28.61 273.17 30.26 Q 274.97 31.92 274.97 34.89 Q 274.97 38.27 272.28 40.24 Q 269.58 42.21 264.88 42.21 Q 262.92 42.21 260.79 41.83 Q 258.66 41.45 256.31 40.69 L 256.31 36.58 Q 258.54 37.73 260.69 38.30 Q 262.85 38.87 264.97 38.87 Q 267.80 38.87 269.32 37.91 Q 270.85 36.94 270.85 35.19 Q 270.85 33.57 269.74 32.70 Q 268.65 31.84 264.92 31.03 L 263.52 30.71 Q 259.80 29.93 258.14 28.32 Q 256.48 26.70 256.48 23.89 Q 256.48 20.46 258.93 18.61 Q 261.37 16.74 265.86 16.74 Q 268.08 16.74 270.04 17.07 Q 272.00 17.39 273.66 18.04 Z"/>
    <!-- Right Bracket ] -->
    <path d="M 302.10 1.56 L 302.10 48.53 L 291.13 48.53 L 291.13 44.85 L 297.31 44.85 L 297.31 5.24 L 291.13 5.24 L 291.13 1.56 L 302.10 1.56 Z"/>
  </g>
</svg>
